<?xml version="1.0" encoding="UTF-8"?>
<svg width="72px" height="36px" viewBox="0 0 72 36" version="1.1" xmlns="http://www.w3.org/2000/svg" xmlns:xlink="http://www.w3.org/1999/xlink">
    <title>Element/Logo/1</title>
    <g id="Symbols" stroke="none" stroke-width="1" fill="none" fill-rule="evenodd">
        <g id="Element/Logo/1">
            <rect id="Bound" x="0" y="0" width="72" height="36"></rect>
            <path d="M3,8.02434412 L15.6857652,8.02434412 L15.6857652,10.2252206 C15.6857652,10.7333184 15.4930595,11.241086 15.107894,11.6288253 C14.7228927,12.0162344 14.2181168,12.2100627 13.7130948,12.2100627 L7.21188013,12.2100627 L7.21188013,16.4035411 L14.4962235,16.4035411 L14.4962235,18.4375007 C14.4962235,18.9900106 14.2867001,19.5427681 13.8678173,19.9642705 C13.4486064,20.3858555 12.8996124,20.5966892 12.3503722,20.5966892 L7.21188013,20.5966892 L7.21188013,27.5892044 L3.00820374,27.5892044 L3,8.02434412 Z M50.1549846,9.61311759 C50.1302093,9.58876522 50.0978866,9.58075783 50.0648255,9.58075783 C50.0320926,9.58075783 50.0083838,9.58876522 49.9836086,9.6049451 C49.9346323,9.63763506 49.9183889,9.71036198 49.9430001,9.76616605 C50.2443233,10.3793505 50.3988817,11.0243994 50.3988817,11.6934705 C50.3988817,13.9438773 48.6389342,15.928059 46.284626,16.3061399 C46.1049642,16.3465896 45.9257126,16.3710245 45.746625,16.3710245 L41.6240836,16.3710245 L41.6240836,12.1777938 L46.78087,12.1777938 C47.5795857,12.1777938 48.3046319,12.6131646 48.6630532,13.3226029 C48.6797888,13.3630526 48.7204793,13.3954949 48.7689634,13.3954949 L48.7772492,13.4036674 C48.8179397,13.4036674 48.8589584,13.379315 48.8834055,13.3468727 C49.2579061,12.8469474 49.4374859,12.1860488 49.4374859,11.2665198 C49.4374859,10.3714257 49.0628212,9.55648801 48.3777272,8.98416601 C47.6203583,8.33878689 46.4878326,8 45.1192853,8 L41.6240836,8 L37.5501903,8 L37.420079,8 L37.420079,27.7201376 L41.6240836,27.7201376 L41.6240836,20.5806827 L45.9101255,20.5806827 C49.4131208,20.5806827 52.2649855,17.7582016 52.2649855,14.2907541 C52.2649855,12.5165807 51.4906349,10.8063012 50.1549846,9.61311759 M32.046796,9.00978965 C33.3516822,7.66355754 35.1836585,8.06095522 35.1836585,8.06095522 L35.1836585,19.1775238 C35.1836585,23.9916987 31.2235511,27.9112748 26.359638,27.9112748 C23.6053977,27.9112748 21.0631419,26.6775589 19.3851497,24.5241489 C19.3442131,24.4756092 19.3521707,24.4037078 19.3931894,24.3549205 C19.4178006,24.3304856 19.4579989,24.3146359 19.4908139,24.3146359 C19.515261,24.3146359 19.5395441,24.3224782 19.5641553,24.3386581 C20.7290037,25.0726964 22.0984534,25.4841276 23.5158129,25.5239169 L23.7519164,25.5239169 C25.8382085,25.5159095 27.8180982,24.7262323 29.1948492,23.3392203 C30.3686397,22.1530534 31.0036089,20.6209178 30.970958,19.0404076 L30.970958,12.4739351 C30.970958,11.3330884 30.9938465,10.0961531 32.046796,9.00978965 Z M18.0120494,8.07083651 C18.0120494,8.07083651 19.7157193,7.66518379 21.0782778,8.95189705 C22.0171134,9.83832337 22.2166282,11.023252 22.2166282,12.0574435 L22.2166282,20.6487951 C22.2166282,22.2533274 23.1046006,23.753516 24.5387778,24.5514483 C24.5870978,24.5838081 24.6198307,24.6404376 24.6035052,24.6972323 C24.5870978,24.7533666 24.5387778,24.7935687 24.4815157,24.8017412 C24.2942244,24.8181687 24.1147266,24.8261761 23.935475,24.8261761 C20.6115673,24.8261761 18.0040098,22.5762646 18.0040098,19.7134163 Z M55.2734268,21.8402534 C56.8961258,23.5085147 59.1215533,24.4436457 61.4414878,24.4320061 C63.7096567,24.4320061 64.8148641,23.3659501 64.8148641,22.2720746 C64.8148641,20.8319001 63.1277657,20.3428715 60.8890482,19.8247026 C57.7215857,19.1042851 53.6472002,18.2403125 53.6472002,13.9534696 C53.6472002,10.7570352 56.4387675,8.16619049 61.0046388,8.16619049 C64.0888334,8.16619049 66.6469224,9.08885644 68.5665966,10.8443735 L66.2668433,13.8351749 C64.6999297,12.3951655 62.6018242,11.7298918 60.7112732,11.7298918 C58.8500916,11.7298918 57.8615414,12.5369046 57.8615414,13.6884003 C57.8615414,14.9843592 59.4903112,15.3869575 61.7298491,15.905209 C64.9290601,16.625709 69,17.5760293 69,21.8376943 C69,25.3502969 66.470378,28 61.2348357,28 C57.5124725,28 54.8366599,26.761166 53.0045195,24.9478636 L55.2734268,21.8402534 Z" id="Icon" fill="#155ED4"></path>
        </g>
    </g>
</svg>