<?xml version="1.0" encoding="UTF-8"?>
<svg width="22px" height="18px" viewBox="0 0 22 18" version="1.1" xmlns="http://www.w3.org/2000/svg" xmlns:xlink="http://www.w3.org/1999/xlink">
    <title>Icon/36/Navigation/Card_Stroke</title>
    <g id="Front-End-Case-Study" stroke="none" stroke-width="1" fill="none" fill-rule="evenodd">
        <g id="Menu" transform="translate(-350.000000, -37.000000)">
            <g id="Group-9" transform="translate(188.000000, 28.000000)">
                <g id="Icon/36/Navigation/Card_Stroke" transform="translate(155.000000, 0.000000)">
                    <rect id="Bound" x="0" y="0" width="36" height="36"></rect>
                    <path d="M22,9 C23.1045695,9 24,9.8954305 24,11 L24,14 L27,14 C28.1045695,14 29,14.8954305 29,16 L29,25 C29,26.1045695 28.1045695,27 27,27 L14,27 C12.8954305,27 12,26.1045695 12,25 L12,22 L9,22 C7.8954305,22 7,21.1045695 7,20 L7,11 C7,9.8954305 7.8954305,9 9,9 L22,9 Z M27,20 L14,20 L14,25 L27,25 L27,20 Z M21.6066667,22 L25.3916667,22 L25.583078,22.007827 C25.9467185,22.03744 25.9925556,22.1664 25.9983333,22.728 L25.9983333,23.27 C25.9917157,23.9132353 25.9325461,23.98891 25.4035007,23.9978129 L21.6066667,23.998 C21.0666667,23.99 21.0066667,23.918 21,23.27 L21,22.728 L21.0065225,22.4983064 C21.0312,22.0619378 21.1386667,22.0069333 21.6066667,22 Z M22,11 L9,11 L9,20 L12,20 L12,16 C12,14.8954305 12.8954305,14 14,14 L22,14 L22,11 Z M27,16 L14,16 L14,18 L27,18 L27,16 Z" id="Icon" fill="#909099"></path>
                </g>
            </g>
        </g>
    </g>
</svg>