<?xml version="1.0" encoding="UTF-8"?>
<svg width="20px" height="18px" viewBox="0 0 20 18" version="1.1" xmlns="http://www.w3.org/2000/svg" xmlns:xlink="http://www.w3.org/1999/xlink">
    <title>Icon/36/Navigation/Function_Stroke</title>
    <g id="Front-End-Case-Study" stroke="none" stroke-width="1" fill="none" fill-rule="evenodd">
        <g id="Homepage" transform="translate(-637.000000, -37.000000)">
            <g id="Group-9" transform="translate(188.000000, 28.000000)">
                <g id="Icon/36/Navigation/Function_Stroke" transform="translate(441.000000, 0.000000)">
                    <rect id="Bound" x="0" y="0" width="36" height="36"></rect>
                    <path d="M17.967278,9 C18.1993228,9 18.4136972,9.11438702 18.5420006,9.30095248 L18.5915187,9.38520514 L21.01057,14.1781674 C21.0979449,14.3529482 21.2551526,14.4814369 21.4415207,14.5345412 L21.5369464,14.5546766 L26.9014255,15.307695 C27.1633971,15.3442272 27.3817631,15.5248358 27.4648175,15.7736714 C27.5360071,15.986959 27.4972165,16.2187121 27.3660702,16.3964746 L27.2928823,16.4805212 L23.4163193,20.2437307 C23.2822093,20.3776015 23.2105301,20.558732 23.2146309,20.7441423 L23.2262917,20.8555581 L24.1764297,26.1398649 C24.2220091,26.3979253 24.1159168,26.6592664 23.9026771,26.8142098 C23.7199002,26.9470184 23.4855117,26.9819595 23.2744335,26.9132889 L23.1711837,26.8702927 L18.3653858,24.4041574 C18.1963825,24.3160139 17.9998916,24.3013233 17.8217258,24.3600857 L17.7173917,24.4041574 L12.9324969,26.9192389 C12.69884,27.0424167 12.4148615,27.0235314 12.1999195,26.8705207 C12.0118453,26.7366363 11.905155,26.5203703 11.91044,26.2951037 L11.9196498,26.1982238 L12.8127795,20.9063869 C12.8452532,20.7143088 12.7940054,20.5192206 12.674701,20.3681131 L12.60945,20.296442 L8.71198396,16.5690008 C8.52180187,16.3867648 8.45246908,16.1134084 8.5331096,15.863758 C8.60367005,15.6453139 8.77835853,15.4781306 8.99620956,15.4136207 L9.09203915,15.3924095 L14.4489171,14.5923275 C14.642666,14.5641638 14.8138573,14.4567412 14.9225436,14.2988414 L14.971493,14.2158183 L17.3430374,9.38520514 C17.4599696,9.14940345 17.702084,9 17.967278,9 Z M17.983,12.619 L16.7612581,15.1084216 C16.3951315,15.8425447 15.7160352,16.3654201 14.928038,16.5370729 L14.7443522,16.5703867 L12.031,16.975 L13.990516,18.8498403 C14.5891712,19.4213745 14.8891313,20.23374 14.8099328,21.0507211 L14.7848889,21.2392296 L14.331,23.923 L16.7925248,22.6308494 C17.5146842,22.254208 18.3652591,22.2252356 19.097927,22.5391479 L19.2784951,22.6247667 L21.738,23.887 L21.260901,21.2260163 C21.1080374,20.4150294 21.3373477,19.5836418 21.8899952,18.9510468 L22.0232422,18.808692 L23.973,16.916 L21.2609084,16.5355357 C20.4451653,16.4218597 19.7284797,15.9427833 19.3150276,15.2443251 L19.2250914,15.0793145 L17.983,12.619 Z" id="Icon" fill="#909099"></path>
                </g>
            </g>
        </g>
    </g>
</svg>