<?xml version="1.0" encoding="UTF-8"?>
<svg width="22px" height="18px" viewBox="0 0 22 18" version="1.1" xmlns="http://www.w3.org/2000/svg" xmlns:xlink="http://www.w3.org/1999/xlink">
    <title>Icon</title>
    <g id="Front-End-Case-Study" stroke="none" stroke-width="1" fill="none" fill-rule="evenodd">
        <g id="Homepage" transform="translate(-73.000000, -566.000000)" fill="#FFFFFF">
            <g id="Transaction-Copy" transform="translate(40.000000, 400.000000)">
                <g id="Content" transform="translate(0.000000, 43.000000)">
                    <g id="Icon" transform="translate(24.000000, 113.000000)">
                        <g id="Icon/36/Thumb/Food" transform="translate(9.500000, 10.000000)">
                            <path  d="M19.6209739,5.53333333 C20.5089723,5.53333333 21,6.03695134 21,6.85442788 L21,16.5131792 C21,17.4314003 20.451475,18 19.5216741,18 L1.39497384,18 C0.43139984,18 0,17.3092346 0,16.5131792 L0,6.85442788 C0,5.92871421 0.50498971,5.53333333 1.39497384,5.53333333 L19.6209739,5.53333333 Z M10.5000001,8.93333333 C8.96587578,8.93333333 7.72222231,10.2018599 7.72222231,11.7666667 C7.72222231,13.3314735 8.96587578,14.6 10.5000001,14.6 C12.0341244,14.6 13.2777779,13.3314735 13.2777779,11.7666667 C13.2777779,10.2018599 12.0341244,8.93333333 10.5000001,8.93333333 Z M3.7411112,10.6333333 C3.12746148,10.6333333 2.63000009,11.140744 2.63000009,11.7666667 C2.63000009,12.3925894 3.12746148,12.9 3.7411112,12.9 C4.35476092,12.9 4.85222231,12.3925894 4.85222231,11.7666667 C4.85222231,11.140744 4.35476092,10.6333333 3.7411112,10.6333333 Z M17.2611112,10.6333333 C16.6474615,10.6333333 16.1500001,11.140744 16.1500001,11.7666667 C16.1500001,12.3925894 16.6474615,12.9 17.2611112,12.9 C17.8747609,12.9 18.3722223,12.3925894 18.3722223,11.7666667 C18.3722223,11.140744 17.8747609,10.6333333 17.2611112,10.6333333 Z M18.2777779,2.765 C19.1175042,2.765 19.388889,3.67241062 19.388889,4.29833333 L1.6111112,4.29833333 C1.6111112,3.67241062 1.77491578,2.765 2.72222231,2.765 L18.2777779,2.765 Z M16.0555556,-1.77635684e-15 C17.0596124,-1.77635684e-15 17.3700001,0.804077284 17.3700001,1.43 L3.63000009,1.43 C3.63000009,0.804077284 3.93260583,-1.77635684e-15 4.94444453,-1.77635684e-15 L16.0555556,-1.77635684e-15 Z" id="Icon"></path>
                        </g>
                    </g>
                </g>
            </g>
        </g>
    </g>
</svg>