<?xml version="1.0" encoding="UTF-8"?>
<svg width="22px" height="17px" viewBox="0 0 22 17" version="1.1" xmlns="http://www.w3.org/2000/svg" xmlns:xlink="http://www.w3.org/1999/xlink">
    <title>Icon</title>
    <g id="Front-End-Case-Study" stroke="none" stroke-width="1" fill="none" fill-rule="evenodd">
        <g id="Homepage" transform="translate(-73.000000, -656.000000)" fill="#FFFFFF">
            <g id="Transaction-Copy" transform="translate(40.000000, 400.000000)">
                <g id="Content" transform="translate(0.000000, 43.000000)">
                    <g id="Component/List/Action-Copy-4" transform="translate(24.000000, 202.000000)">
                        <g id="Icon/36/Thumb/Food" transform="translate(9.500000, 11.000000)">
                            <path d="M1.182648,10.4875906 C1.37990224,9.80644449 2.10987728,9.28938617 2.87531359,9.28938617 L6.83540159,9.28938617 C7.60000421,9.28938617 8.33137649,9.80839006 8.52806718,10.4875906 L9.65993437,15.4401716 C9.89723448,16.2596018 9.27954814,17 8.35880596,17 L1.35190923,17 C0.431208578,17 -0.185898971,16.2574597 0.0507808154,15.4401716 L1.182648,10.4875906 Z M12.4717328,10.4875906 C12.6689871,9.80644449 13.3989621,9.28938617 14.1643984,9.28938617 L18.1244864,9.28938617 C18.889089,9.28938617 19.6204613,9.80839006 19.817152,10.4875906 L20.9490192,15.4401716 C21.1863193,16.2596018 20.568633,17 19.6478908,17 L12.6409941,17 C11.7202934,17 11.1031859,16.2574597 11.3398656,15.4401716 L12.4717328,10.4875906 Z M8.52431411,0 L12.4844018,0 C13.2490044,0 13.9803766,0.519003895 14.1770673,1.19820444 L15.3089351,6.15078538 C15.5462352,6.97021563 14.9285481,7.71061382 14.007806,7.71061382 L7.00090993,7.71061382 C6.08020928,7.71061382 5.46310099,6.96807357 5.69978077,6.15078538 L6.83164862,1.19820444 C7.02890286,0.517058321 7.7588778,0 8.52431411,0 Z" id="Icon"></path>
                        </g>
                    </g>
                </g>
            </g>
        </g>
    </g>
</svg>