<?xml version="1.0" encoding="UTF-8"?>
<svg width="22px" height="20px" viewBox="0 0 22 20" version="1.1" xmlns="http://www.w3.org/2000/svg" xmlns:xlink="http://www.w3.org/1999/xlink">
    <title>Icon</title>
    <defs>
        <path  d="M4.79724218,0.10735048 L5.90392772,1.08451021 L5.90392772,1.08451021 L6.82803799,1.91314507 L6.82803799,1.91314507 L7.60221506,2.6198204 L7.60221506,2.6198204 L8.0844542,3.06979096 C8.13335092,3.11597645 8.18068583,3.16089154 8.22645894,3.20453621 C8.65002193,3.58822555 8.9436223,4.21160795 8.99672761,4.46662401 C9.14665978,5.18661064 9.18057965,5.93486326 8.9436223,6.63591447 C8.80231306,7.0539752 8.9321002,7.51452949 9.2444656,7.82356645 L10.5213505,8.97546372 L12.2509052,7.40691605 C12.6837373,7.01707545 12.8446404,6.42564192 12.7164451,5.86087321 L12.7003694,5.79583891 C12.3750181,4.57964971 12.6880471,3.22932796 13.6435536,2.27502824 L13.8295423,2.09701521 L13.9293805,2.00702894 L14.0871883,1.87142253 L14.3116845,1.69055918 L14.4898361,1.55580027 L14.7392601,1.3786701 L14.9344598,1.24866346 L14.9344598,1.24866346 L15.2044171,1.0804728 L15.4841347,0.919727972 L15.7721776,0.768129001 L15.9188726,0.69629047 L15.9188726,0.69629047 L16.2167129,0.561597834 L16.2167129,0.561597834 L16.4432808,0.469276461 L16.4432808,0.469276461 L16.5955078,0.412269277 C17.8928192,-0.0561018155 19.2699002,-0.103951992 20.2310512,0.855985009 C21.2110648,1.83476086 21.14204,3.24537821 20.6472738,4.56307377 L20.5575098,4.79010786 L20.5575098,4.79010786 L20.4599617,5.01468165 L20.408493,5.12585701 L20.408493,5.12585701 L20.2820339,5.38186189 L20.2061117,5.52572318 L20.1277938,5.66759532 L20.0062905,5.87628196 L20.0062905,5.87628196 L19.8805937,6.07948532 L19.8805937,6.07948532 L19.7948207,6.21160938 L19.6637306,6.40433037 L19.5750271,6.52890637 L19.4405384,6.70946554 L19.4405384,6.70946554 L19.3049682,6.88192148 L19.3049682,6.88192148 L19.1690345,7.0456696 L19.1690345,7.0456696 L19.0334554,7.20010529 L19.0334554,7.20010529 L18.8544762,7.39048857 L18.8102288,7.43516172 C17.8769284,8.36728338 16.5653483,8.68722225 15.3701337,8.39879148 L15.2849658,8.37715469 C14.7218747,8.22690041 14.1232948,8.36602475 13.717758,8.77739367 L13.671835,8.82606653 L12.1787208,10.4682247 L18.4426626,16.1100981 C19.1071299,16.7085757 19.2248285,17.7418499 18.6458039,18.4231489 C18.0466615,19.128111 16.9874054,19.1947481 16.3047999,18.5799331 L16.2236845,18.50152 L16.2236845,18.50152 L7.89322038,9.27743051 C7.57807372,8.92841307 7.0871465,8.77345261 6.63898669,8.91679603 C5.83054014,9.17537569 4.94649374,9.13991021 4.14701672,8.83030621 C3.95356763,8.75539147 3.43238847,8.39879148 3.16053063,8.10392411 L0.139552084,4.82742648 L0.139552084,4.82742648 C-0.0701299695,4.61760233 -0.0368231056,4.24913043 0.194511932,3.98928909 L0.227280844,3.95455461 L0.268424109,3.91338347 C0.531283856,3.65034559 0.913299734,3.60737578 1.14776993,3.80748115 L1.17749434,3.83496223 L3.82379904,6.48444028 C4.01993704,6.68071119 4.37346435,6.65021405 4.60878641,6.39164182 C4.81984131,6.15845277 4.83265585,5.85136716 4.66396632,5.65310349 L2.01407406,2.9978156 C1.78332347,2.76690864 1.81815375,2.36260363 2.09244218,2.08812932 C2.35530193,1.82509144 2.7373178,1.78212163 2.971788,1.982227 L3.00151241,2.00970809 L5.64781711,4.65918614 C5.84395511,4.85545705 6.19748242,4.82495991 6.43280448,4.56638768 C6.64385937,4.33319863 6.65667392,4.02611302 6.48798439,3.82784935 L6.46132177,3.79894881 L3.83809212,1.17256146 C3.61695615,0.951275622 3.63973037,0.570740533 3.88342326,0.297838735 L3.95760351,0.221704034 C4.20633325,-0.0271942582 4.56276653,-0.0682803399 4.79724218,0.10735048 Z M8.15378117,11.272291 L8.17168564,11.29057 L8.96362648,12.2651306 C9.36375302,12.7575083 9.35754654,13.4608479 8.95698158,13.9453758 L4.95795432,18.4098153 C4.35870456,19.0734434 3.32412367,19.190978 2.64197854,18.6126693 C1.93614025,18.0142684 1.86943419,16.9563653 2.48501136,16.2746373 L2.56352024,16.1936176 L2.56352024,16.1936176 L7.97366973,11.27552 C8.02529818,11.2286975 8.10252186,11.22892 8.15378117,11.272291 Z" id="path-1"></path>
    </defs>
    <g id="Front-End-Case-Study" stroke="none" stroke-width="1" fill="none" fill-rule="evenodd">
        <g id="Homepage" transform="translate(-73.000000, -477.000000)">
            <g id="Transaction-Copy" transform="translate(40.000000, 400.000000)">
                <g id="Content" transform="translate(0.000000, 43.000000)">
                    <g id="Icon" transform="translate(24.000000, 24.000000)">
                        <g id="Icon/36/Thumb/Food" transform="translate(9.500000, 10.500000)">
                            <mask id="mask-2" fill="white">
                                <use xlink:href="#path-1"></use>
                            </mask>
                            <use id="Icon" fill="#fff" xlink:href="#path-1"></use>
                        </g>
                    </g>
                </g>
            </g>
        </g>
    </g>
</svg>