<?xml version="1.0" encoding="UTF-8"?>
<svg width="18px" height="16px" viewBox="0 0 18 16" version="1.1" xmlns="http://www.w3.org/2000/svg" xmlns:xlink="http://www.w3.org/1999/xlink">
    <title>Icon/20/General/Identify</title>
    <g id="Front-End-Case-Study" stroke="none" stroke-width="1" fill="none" fill-rule="evenodd">
        <g id="Login" transform="translate(-1089.000000, -352.000000)">
            <g id="text" transform="translate(1088.000000, 112.000000)">
                <g id="Icon/20/General/Identify" transform="translate(0.000000, 238.000000)">
                    <rect id="Bound" x="0" y="0" width="20" height="20"></rect>
                    <path d="M2.82222222,12.8571429 C3.45308388,12.8571429 3.98766277,13.3047844 4.11707452,13.9301127 L4.13746311,14.0574675 L4.14444444,14.1904762 L4.1435,15.3333333 L5.29953517,15.3339657 L5.43150512,15.3422846 C6.09492765,15.4199876 6.6,15.9880928 6.6,16.6666667 C6.6,17.3028297 6.15608875,17.8419011 5.5359709,17.9724004 L5.40967722,17.9929603 L5.27777778,18 L3.75279179,17.999743 L3.59790113,17.9937429 C2.53407474,17.9145972 1.67453592,17.0958324 1.52279678,16.0317857 L1.50598909,15.8781639 L1.5,15.7142857 L1.50062711,14.1685351 L1.50887692,14.035457 C1.58593241,13.3664595 2.14930312,12.8571429 2.82222222,12.8571429 Z M17.1777778,12.8571053 C17.8086365,12.8571053 18.3432176,13.3047768 18.47263,13.9301117 L18.4930187,14.0574675 L18.5,14.1904762 L18.5,15.7142857 C18.5,16.8610803 17.6596446,17.8192785 16.5422186,17.9779015 L16.3881779,17.9945185 L16.2333333,18 L14.7222222,18 C13.9919791,18 13.4,17.4030463 13.4,16.6666667 C13.4,16.0305036 13.8439112,15.4914323 14.4640291,15.360933 L14.5903228,15.340373 L14.7222222,15.3333333 L15.8546111,15.332381 L15.8555556,14.1904762 C15.8555556,13.5407272 16.3164408,12.9995025 16.9265255,12.8811486 L17.0504393,12.8632093 L17.1777778,12.8571053 Z M17.1777778,8.66666667 C17.9080209,8.66666667 18.5,9.26362033 18.5,10 C18.5,10.6930632 17.9756172,11.262621 17.3051166,11.3272297 L17.1777778,11.3333333 L2.82222222,11.3333333 C2.09197905,11.3333333 1.5,10.7363797 1.5,10 C1.5,9.30693678 2.02438283,8.73737895 2.6948834,8.67277029 L2.82222222,8.66666667 L17.1777778,8.66666667 Z M16.2472082,2.00025702 L16.4020989,2.00625708 C17.4659253,2.08540284 18.3254641,2.90416764 18.4772032,3.96821425 L18.4940109,4.12183611 L18.5,4.28571429 L18.4993729,5.83146491 L18.4911231,5.96454298 C18.4140672,6.633544 17.8506938,7.14289471 17.1777778,7.14289471 C16.546919,7.14289471 16.0123379,6.69522319 15.8829256,6.06988834 L15.8625369,5.94253253 L15.8555556,5.80952381 L15.8555556,4.66666667 L14.7004648,4.66603434 L14.5684949,4.6577154 C13.9050724,4.58001239 13.4,4.01190724 13.4,3.33333333 C13.4,2.6971703 13.8439112,2.15809894 14.4640291,2.02759963 L14.5903228,2.00703969 L14.7222222,2 L16.2472082,2.00025702 Z M5.27777778,2 C6.00802095,2 6.6,2.59695367 6.6,3.33333333 C6.6,3.96949637 6.15608875,4.50856773 5.5359709,4.63906703 L5.40967722,4.65962698 L5.27777778,4.66666667 L4.1435,4.66666667 L4.14444444,5.80952381 C4.14444444,6.4592728 3.68355915,7.00049745 3.07347455,7.11885136 L2.94956066,7.13679073 L2.82222222,7.14289471 C2.19136345,7.14289471 1.65678239,6.69522319 1.52737003,6.06988834 L1.50698133,5.94253253 L1.5,5.80952381 L1.5,4.28571429 C1.5,3.13891968 2.34035544,2.18072146 3.45778138,2.02209851 L3.61182213,2.00548153 L3.76666667,2 L5.27777778,2 Z" id="Icon" fill="#41BF9F"></path>
                </g>
            </g>
        </g>
    </g>
</svg>