<?xml version="1.0" encoding="UTF-8"?>
<svg width="14px" height="20px" viewBox="0 0 14 20" version="1.1" xmlns="http://www.w3.org/2000/svg" xmlns:xlink="http://www.w3.org/1999/xlink">
    <title>Icon/20/General/Mobile</title>
    <g id="Front-End-Case-Study" stroke="none" stroke-width="1" fill="none" fill-rule="evenodd">
        <g id="Login" transform="translate(-1091.000000, -222.000000)">
            <g id="text" transform="translate(1088.000000, 112.000000)">
                <g id="Icon/20/General/Mobile" transform="translate(0.000000, 110.000000)">
                    <rect id="Bound" x="0" y="0" width="20" height="20"></rect>
                    <path d="M14.3333333,0.5 C15.5299503,0.5 16.5,1.44517664 16.5,2.61111111 L16.5,17.3888889 C16.5,18.5548234 15.5299503,19.5 14.3333333,19.5 L5.66666667,19.5 C4.47004971,19.5 3.5,18.5548234 3.5,17.3888889 L3.5,2.61111111 C3.5,1.44517664 4.47004971,0.5 5.66666667,0.5 L14.3333333,0.5 Z M8.67777778,15.7 L11.3222222,15.7 C11.788596,15.7 12.1666667,16.0780707 12.1666667,16.5444444 C12.1666667,17.0108182 11.788596,17.3888889 11.3222222,17.3888889 L8.67777778,17.3888889 C8.21140399,17.3888889 7.83333333,17.0108182 7.83333333,16.5444444 C7.83333333,16.0780707 8.21140399,15.7 8.67777778,15.7 Z" id="Icon" fill="#8066CC"></path>
                </g>
            </g>
        </g>
    </g>
</svg>