<?xml version="1.0" encoding="UTF-8"?>
<svg width="18px" height="18px" viewBox="0 0 18 18" version="1.1" xmlns="http://www.w3.org/2000/svg" xmlns:xlink="http://www.w3.org/1999/xlink">
    <title>Icon/20/General/Person</title>
    <g id="Front-End-Case-Study" stroke="none" stroke-width="1" fill="none" fill-rule="evenodd">
        <g id="Login" transform="translate(-1089.000000, -287.000000)">
            <g id="text" transform="translate(1088.000000, 112.000000)">
                <g id="Icon/20/General/Person" transform="translate(0.000000, 174.000000)">
                    <rect id="Bound" transform="translate(10.000000, 10.000000) scale(1, -1) translate(-10.000000, -10.000000) " x="0" y="0" width="20" height="20"></rect>
                    <path d="M10.0010568,12.125 C14.1480169,12.125 17.6207261,14.8483396 18.5,18.5 L1.5,18.5 C2.38138754,14.8483396 5.85198309,12.125 10.0010568,12.125 Z M10,1.5 C12.3464266,1.5 14.25,3.40357338 14.25,5.75 C14.25,8.09642662 12.3464266,10 10,10 C7.65125477,10 5.75,8.09642662 5.75,5.75 C5.75,3.40357338 7.65125477,1.5 10,1.5 Z" id="Icon" fill="#FFB44D"></path>
                </g>
            </g>
        </g>
    </g>
</svg>